{
  "accessors": [
    {
      "bufferView": 2,
      "componentType": 5126,
      "count": 1495,
      "max": [
        0.9987599849700928,
        1.4390920400619507,
        0.9987599849700928
      ],
      "min": [
        -0.9987599849700928,
        1.1437740325927734,
        -0.9987599849700928
      ],
      "type": "VEC3"
    },
    {
      "bufferView": 2,
      "byteOffset": 17940,
      "componentType": 5126,
      "count": 1495,
      "max": [
        1.0,
        1.0,
        1.0
      ],
      "min": [
        -1.0,
        -1.0,
        -1.0
      ],
      "type": "VEC3"
    },
    {
      "bufferView": 3,
      "componentType": 5126,
      "count": 1495,
      "max": [
        1.0,
        1.0,
        1.0,
        1.0
      ],
      "min": [
        -1.0,
        -1.0,
        -1.0,
        1.0
      ],
      "type": "VEC4"
    },
    {
      "bufferView": 1,
      "componentType": 5126,
      "count": 1495,
      "max": [
        0.9694460034370422,
        0.9537209868431091
      ],
      "min": [
        0.030618000775575638,
        0.03925099968910217
      ],
      "type": "VEC2"
    },
    {
      "bufferView": 0,
      "componentType": 5125,
      "count": 6480,
      "type": "SCALAR"
    },
    {
      "bufferView": 2,
      "byteOffset": 35880,
      "componentType": 5126,
      "count": 4902,
      "max": [
        0.9125779867172241,
        5.493285179138184,
        0.9102209806442261
      ],
      "min": [
        -0.9126530289649963,
        1.970201015472412,
        -0.9102209806442261
      ],
      "type": "VEC3"
    },
    {
      "bufferView": 2,
      "byteOffset": 94704,
      "componentType": 5126,
      "count": 4902,
      "max": [
        1.0,
        1.0,
        0.9976688623428345
      ],
      "min": [
        -1.0,
        -1.0,
        -0.9976688623428345
      ],
      "type": "VEC3"
    },
    {
      "bufferView": 3,
      "byteOffset": 23920,
      "componentType": 5126,
      "count": 4902,
      "max": [
        1.0,
        1.0,
        1.0,
        1.0
      ],
      "min": [
        -0.9982776045799255,
        -1.0,
        -1.0,
        1.0
      ],
      "type": "VEC4"
    },
    {
      "bufferView": 1,
      "byteOffset": 11960,
      "componentType": 5126,
      "count": 4902,
      "max": [
        0.9544000029563904,
        0.9617509841918945
      ],
      "min": [
        0.0,
        0.0
      ],
      "type": "VEC2"
    },
    {
      "bufferView": 0,
      "byteOffset": 25920,
      "componentType": 5125,
      "count": 19872,
      "type": "SCALAR"
    },
    {
      "bufferView": 2,
      "byteOffset": 153528,
      "componentType": 5126,
      "count": 6580,
      "max": [
        1.0388760566711426,
        0.683646023273468,
        1.635138988494873
      ],
      "min": [
        -1.0388760566711426,
        -0.09625899791717529,
        -0.4440230131149292
      ],
      "type": "VEC3"
    },
    {
      "bufferView": 2,
      "byteOffset": 232488,
      "componentType": 5126,
      "count": 6580,
      "max": [
        1.0,
        1.0,
        1.0
      ],
      "min": [
        -1.0,
        -1.0,
        -1.0
      ],
      "type": "VEC3"
    },
    {
      "bufferView": 3,
      "byteOffset": 102352,
      "componentType": 5126,
      "count": 6580,
      "max": [
        1.0,
        1.0,
        1.0,
        1.0
      ],
      "min": [
        -0.9974066615104675,
        -0.9999104738235474,
        -1.0,
        1.0
      ],
      "type": "VEC4"
    },
    {
      "bufferView": 1,
      "byteOffset": 51176,
      "componentType": 5126,
      "count": 6580,
      "max": [
        0.9614530205726624,
        0.9780219793319702
      ],
      "min": [
        0.021606000140309334,
        0.021978000178933144
      ],
      "type": "VEC2"
    },
    {
      "bufferView": 0,
      "byteOffset": 105408,
      "componentType": 5125,
      "count": 29520,
      "type": "SCALAR"
    },
    {
      "bufferView": 2,
      "byteOffset": 311448,
      "componentType": 5126,
      "count": 1174,
      "max": [
        0.9720730185508728,
        1.995803952217102,
        0.9698060154914856
      ],
      "min": [
        -0.9720730185508728,
        1.0336439609527588,
        -0.9698060154914856
      ],
      "type": "VEC3"
    },
    {
      "bufferView": 2,
      "byteOffset": 325536,
      "componentType": 5126,
      "count": 1174,
      "max": [
        1.0,
        1.0,
        0.9976703524589539
      ],
      "min": [
        -1.0,
        -1.0,
        -0.9976703524589539
      ],
      "type": "VEC3"
    },
    {
      "bufferView": 3,
      "byteOffset": 207632,
      "componentType": 5126,
      "count": 1174,
      "max": [
        1.0,
        0.9999682307243347,
        1.0,
        1.0
      ],
      "min": [
        -0.8878930807113647,
        -0.9999262690544128,
        -1.0,
        1.0
      ],
      "type": "VEC4"
    },
    {
      "bufferView": 1,
      "byteOffset": 103816,
      "componentType": 5126,
      "count": 1174,
      "max": [
        0.9633700251579285,
        0.9503560066223145
      ],
      "min": [
        0.03663000091910362,
        0.03469099849462509
      ],
      "type": "VEC2"
    },
    {
      "bufferView": 0,
      "byteOffset": 223488,
      "componentType": 5125,
      "count": 5244,
      "type": "SCALAR"
    },
    {
      "bufferView": 2,
      "byteOffset": 339624,
      "componentType": 5126,
      "count": 1358,
      "max": [
        0.9997869729995728,
        4.681962966918945,
        0.9974560141563416
      ],
      "min": [
        -0.9997869729995728,
        1.6974940299987793,
        -0.9974560141563416
      ],
      "type": "VEC3"
    },
    {
      "bufferView": 2,
      "byteOffset": 355920,
      "componentType": 5126,
      "count": 1358,
      "max": [
        0.999999463558197,
        0.9988177418708801,
        0.9976682662963867
      ],
      "min": [
        -0.999999463558197,
        -0.9894366264343262,
        -0.9976682662963867
      ],
      "type": "VEC3"
    },
    {
      "bufferView": 3,
      "byteOffset": 226416,
      "componentType": 5126,
      "count": 1358,
      "max": [
        0.9999945163726807,
        0.6945387721061707,
        1.0,
        1.0
      ],
      "min": [
        -0.887885570526123,
        -0.6943536996841431,
        -1.0,
        1.0
      ],
      "type": "VEC4"
    },
    {
      "bufferView": 1,
      "byteOffset": 113208,
      "componentType": 5126,
      "count": 1358,
      "max": [
        0.9670330286026001,
        0.837913990020752
      ],
      "min": [
        0.03296700119972229,
        0.028565000742673874
      ],
      "type": "VEC2"
    },
    {
      "bufferView": 0,
      "byteOffset": 244464,
      "componentType": 5125,
      "count": 6072,
      "type": "SCALAR"
    },
    {
      "bufferView": 2,
      "byteOffset": 372216,
      "componentType": 5126,
      "count": 2221,
      "max": [
        0.8138070106506348,
        1.4831310510635376,
        1.7405129671096802
      ],
      "min": [
        -0.8138070106506348,
        -0.3461329936981201,
        -1.0690369606018066
      ],
      "type": "VEC3"
    },
    {
      "bufferView": 2,
      "byteOffset": 398868,
      "componentType": 5126,
      "count": 2221,
      "max": [
        1.0,
        1.0,
        0.9999984502792358
      ],
      "min": [
        -1.0,
        -1.0,
        -0.9999984502792358
      ],
      "type": "VEC3"
    },
    {
      "bufferView": 3,
      "byteOffset": 248144,
      "componentType": 5126,
      "count": 2221,
      "max": [
        1.0,
        1.0,
        1.0,
        1.0
      ],
      "min": [
        -0.9881850481033325,
        -1.0,
        -1.0,
        1.0
      ],
      "type": "VEC4"
    },
    {
      "bufferView": 1,
      "byteOffset": 124072,
      "componentType": 5126,
      "count": 2221,
      "max": [
        0.9890109896659851,
        0.9558039903640747
      ],
      "min": [
        0.010989000089466572,
        0.010619999840855598
      ],
      "type": "VEC2"
    },
    {
      "bufferView": 0,
      "byteOffset": 268752,
      "componentType": 5125,
      "count": 10656,
      "type": "SCALAR"
    }
  ],
  "asset": {
    "extras": {
      "author": "Daniel Ryan (https://sketchfab.com/Dryan5)",
      "license": "CC-BY-4.0 (http://creativecommons.org/licenses/by/4.0/)",
      "source": "https://sketchfab.com/3d-models/inhale-all-4721a75efb6b4d1ba91cf61696fc9a31",
      "title": "Inhale-All"
    },
    "generator": "Sketchfab-12.63.0",
    "version": "2.0"
  },
  "bufferViews": [
    {
      "buffer": 0,
      "byteLength": 311376,
      "name": "floatBufferViews",
      "target": 34963
    },
    {
      "buffer": 0,
      "byteLength": 141840,
      "byteOffset": 311376,
      "byteStride": 8,
      "name": "floatBufferViews",
      "target": 34962
    },
    {
      "buffer": 0,
      "byteLength": 425520,
      "byteOffset": 453216,
      "byteStride": 12,
      "name": "floatBufferViews",
      "target": 34962
    },
    {
      "buffer": 0,
      "byteLength": 283680,
      "byteOffset": 878736,
      "byteStride": 16,
      "name": "floatBufferViews",
      "target": 34962
    }
  ],
  "buffers": [
    {
      "byteLength": 1162416,
      "uri": "scene.bin"
    }
  ],
  "images": [
    {
      "uri": "textures/lambert5_baseColor.jpeg"
    },
    {
      "uri": "textures/lambert5_metallicRoughness.png"
    },
    {
      "uri": "textures/lambert5_emissive.jpeg"
    },
    {
      "uri": "textures/lambert5_normal.png"
    },
    {
      "uri": "textures/lambert2_baseColor.png"
    },
    {
      "uri": "textures/lambert2_metallicRoughness.png"
    },
    {
      "uri": "textures/lambert2_emissive.jpeg"
    },
    {
      "uri": "textures/lambert2_normal.png"
    },
    {
      "uri": "textures/lambert4_baseColor.jpeg"
    },
    {
      "uri": "textures/lambert4_metallicRoughness.png"
    },
    {
      "uri": "textures/lambert4_normal.png"
    },
    {
      "uri": "textures/lambert1_baseColor.jpeg"
    },
    {
      "uri": "textures/lambert1_metallicRoughness.png"
    },
    {
      "uri": "textures/lambert1_normal.png"
    },
    {
      "uri": "textures/blinn1_baseColor.png"
    },
    {
      "uri": "textures/blinn1_metallicRoughness.png"
    },
    {
      "uri": "textures/blinn1_emissive.jpeg"
    },
    {
      "uri": "textures/blinn1_normal.png"
    },
    {
      "uri": "textures/lambert3_baseColor.jpeg"
    },
    {
      "uri": "textures/lambert3_metallicRoughness.png"
    },
    {
      "uri": "textures/lambert3_normal.png"
    }
  ],
  "materials": [
    {
      "doubleSided": true,
      "emissiveFactor": [
        1.0,
        1.0,
        1.0
      ],
      "emissiveTexture": {
        "index": 2
      },
      "name": "lambert5",
      "normalTexture": {
        "index": 3
      },
      "occlusionTexture": {
        "index": 1
      },
      "pbrMetallicRoughness": {
        "baseColorTexture": {
          "index": 0
        },
        "metallicRoughnessTexture": {
          "index": 1
        }
      }
    },
    {
      "alphaMode": "BLEND",
      "doubleSided": true,
      "emissiveFactor": [
        1.0,
        1.0,
        1.0
      ],
      "emissiveTexture": {
        "index": 6
      },
      "name": "lambert2",
      "normalTexture": {
        "index": 7
      },
      "occlusionTexture": {
        "index": 5
      },
      "pbrMetallicRoughness": {
        "baseColorTexture": {
          "index": 4
        },
        "metallicRoughnessTexture": {
          "index": 5
        }
      }
    },
    {
      "doubleSided": true,
      "name": "lambert4",
      "normalTexture": {
        "index": 10
      },
      "occlusionTexture": {
        "index": 9
      },
      "pbrMetallicRoughness": {
        "baseColorTexture": {
          "index": 8
        },
        "metallicRoughnessTexture": {
          "index": 9
        }
      }
    },
    {
      "doubleSided": true,
      "name": "lambert1",
      "normalTexture": {
        "index": 13
      },
      "occlusionTexture": {
        "index": 12
      },
      "pbrMetallicRoughness": {
        "baseColorTexture": {
          "index": 11
        },
        "metallicRoughnessTexture": {
          "index": 12
        }
      }
    },
    {
      "alphaMode": "BLEND",
      "doubleSided": true,
      "emissiveFactor": [
        1.0,
        1.0,
        1.0
      ],
      "emissiveTexture": {
        "index": 16
      },
      "name": "blinn1",
      "normalTexture": {
        "index": 17
      },
      "occlusionTexture": {
        "index": 15
      },
      "pbrMetallicRoughness": {
        "baseColorTexture": {
          "index": 14
        },
        "metallicRoughnessTexture": {
          "index": 15
        }
      }
    },
    {
      "doubleSided": true,
      "name": "lambert3",
      "normalTexture": {
        "index": 20
      },
      "occlusionTexture": {
        "index": 19
      },
      "pbrMetallicRoughness": {
        "baseColorTexture": {
          "index": 18
        },
        "metallicRoughnessTexture": {
          "index": 19
        }
      }
    }
  ],
  "meshes": [
    {
      "name": "defaultMaterial",
      "primitives": [
        {
          "attributes": {
            "NORMAL": 1,
            "POSITION": 0,
            "TANGENT": 2,
            "TEXCOORD_0": 3
          },
          "indices": 4,
          "material": 0,
          "mode": 4
        }
      ]
    },
    {
      "name": "defaultMaterial",
      "primitives": [
        {
          "attributes": {
            "NORMAL": 6,
            "POSITION": 5,
            "TANGENT": 7,
            "TEXCOORD_0": 8
          },
          "indices": 9,
          "material": 1,
          "mode": 4
        }
      ]
    },
    {
      "name": "defaultMaterial",
      "primitives": [
        {
          "attributes": {
            "NORMAL": 11,
            "POSITION": 10,
            "TANGENT": 12,
            "TEXCOORD_0": 13
          },
          "indices": 14,
          "material": 2,
          "mode": 4
        }
      ]
    },
    {
      "name": "defaultMaterial",
      "primitives": [
        {
          "attributes": {
            "NORMAL": 16,
            "POSITION": 15,
            "TANGENT": 17,
            "TEXCOORD_0": 18
          },
          "indices": 19,
          "material": 3,
          "mode": 4
        }
      ]
    },
    {
      "name": "defaultMaterial",
      "primitives": [
        {
          "attributes": {
            "NORMAL": 21,
            "POSITION": 20,
            "TANGENT": 22,
            "TEXCOORD_0": 23
          },
          "indices": 24,
          "material": 4,
          "mode": 4
        }
      ]
    },
    {
      "name": "defaultMaterial",
      "primitives": [
        {
          "attributes": {
            "NORMAL": 26,
            "POSITION": 25,
            "TANGENT": 27,
            "TEXCOORD_0": 28
          },
          "indices": 29,
          "material": 5,
          "mode": 4
        }
      ]
    }
  ],
  "nodes": [
    {
      "children": [
        1
      ],
      "matrix": [
        1.0,
        0.0,
        0.0,
        0.0,
        0.0,
        2.220446049250313e-16,
        -1.0,
        0.0,
        0.0,
        1.0,
        2.220446049250313e-16,
        0.0,
        0.0,
        0.0,
        0.0,
        1.0
      ],
      "name": "Sketchfab_model"
    },
    {
      "children": [
        2
      ],
      "matrix": [
        1.0,
        0.0,
        0.0,
        0.0,
        0.0,
        -4.371139006309477e-08,
        0.999999999999999,
        0.0,
        0.0,
        -0.999999999999999,
        -4.371139006309477e-08,
        0.0,
        0.0,
        0.0,
        0.0,
        1.0
      ],
      "name": "Collada visual scene group"
    },
    {
      "children": [
        3,
        4,
        5,
        6,
        7,
        8
      ],
      "name": "polySurface5"
    },
    {
      "mesh": 0,
      "name": "defaultMaterial"
    },
    {
      "mesh": 1,
      "name": "defaultMaterial"
    },
    {
      "mesh": 2,
      "name": "defaultMaterial"
    },
    {
      "mesh": 3,
      "name": "defaultMaterial"
    },
    {
      "mesh": 4,
      "name": "defaultMaterial"
    },
    {
      "mesh": 5,
      "name": "defaultMaterial"
    }
  ],
  "samplers": [
    {
      "magFilter": 9729,
      "minFilter": 9987,
      "wrapS": 10497,
      "wrapT": 10497
    }
  ],
  "scene": 0,
  "scenes": [
    {
      "name": "Sketchfab_Scene",
      "nodes": [
        0
      ]
    }
  ],
  "textures": [
    {
      "sampler": 0,
      "source": 0
    },
    {
      "sampler": 0,
      "source": 1
    },
    {
      "sampler": 0,
      "source": 2
    },
    {
      "sampler": 0,
      "source": 3
    },
    {
      "sampler": 0,
      "source": 4
    },
    {
      "sampler": 0,
      "source": 5
    },
    {
      "sampler": 0,
      "source": 6
    },
    {
      "sampler": 0,
      "source": 7
    },
    {
      "sampler": 0,
      "source": 8
    },
    {
      "sampler": 0,
      "source": 9
    },
    {
      "sampler": 0,
      "source": 10
    },
    {
      "sampler": 0,
      "source": 11
    },
    {
      "sampler": 0,
      "source": 12
    },
    {
      "sampler": 0,
      "source": 13
    },
    {
      "sampler": 0,
      "source": 14
    },
    {
      "sampler": 0,
      "source": 15
    },
    {
      "sampler": 0,
      "source": 16
    },
    {
      "sampler": 0,
      "source": 17
    },
    {
      "sampler": 0,
      "source": 18
    },
    {
      "sampler": 0,
      "source": 19
    },
    {
      "sampler": 0,
      "source": 20
    }
  ]
}
